<?xml version="1.0" encoding="UTF-8"?>
<svg xmlns="http://www.w3.org/2000/svg" xmlns:xlink="http://www.w3.org/1999/xlink" width="35px" height="35px" viewBox="0 0 35 35" version="1.1">
<g id="surface1">
<path style="fill:none;stroke-width:2;stroke-linecap:round;stroke-linejoin:round;stroke:rgb(0%,0%,0%);stroke-opacity:1;stroke-miterlimit:4;" d="M 3.003733 19.002801 L 1.004966 19.002801 L 1.004966 2.60398 C 1.004966 2.043432 1.004966 1.764275 1.112163 1.549882 C 1.208193 1.362288 1.362288 1.208193 1.549882 1.112163 C 1.764274 1.004967 2.043432 1.004967 2.60398 1.004967 L 11.40302 1.004967 C 11.963568 1.004967 12.244959 1.004967 12.457118 1.112163 C 12.646945 1.208193 12.798807 1.362288 12.894837 1.549882 C 13.004267 1.764275 13.004267 2.043432 13.004267 2.60398 L 13.004267 6.003 M 4.004233 5.004733 L 5.004733 5.004733 M 4.004233 8.004 L 5.004733 8.004 M 4.004233 11.003267 L 5.004733 11.003267 M 9.0045 5.004733 L 10.005 5.004733 M 8.004 13.004267 L 8.274224 12.191361 C 8.537749 11.405254 8.667278 11.0122 8.910703 10.721876 C 9.125096 10.465051 9.40202 10.266291 9.712443 10.143462 C 10.065298 10.005 10.480684 10.005 11.309223 10.005 L 14.697077 10.005 C 15.527849 10.005 15.941002 10.005 16.293857 10.143462 C 16.606513 10.266291 16.881204 10.465051 17.095597 10.721876 C 17.339022 11.0122 17.470785 11.405254 17.734309 12.191361 L 18.004534 13.004267 M 19.0028 19.002801 L 19.0028 16.204527 C 19.0028 15.083431 19.0028 14.522883 18.786174 14.096331 C 18.594114 13.71891 18.288157 13.412953 17.91297 13.220893 C 17.484184 13.004267 16.923636 13.004267 15.804773 13.004267 L 10.20376 13.004267 C 9.084897 13.004267 8.524349 13.004267 8.095564 13.220893 C 7.720376 13.412953 7.41442 13.71891 7.222359 14.096331 C 7.0035 14.522883 7.0035 15.083431 7.0035 16.204527 L 7.0035 19.002801 M 7.0035 18.004534 L 19.0028 18.004534 M 10.005 15.503284 L 10.013933 15.503284 M 16.003534 15.503284 L 16.0147 15.503284 " transform="matrix(1.749125,0,0,1.749125,0.000000349856,0)"/>
</g>
</svg>
