<?xml version="1.0" encoding="UTF-8"?>
<svg xmlns="http://www.w3.org/2000/svg" xmlns:xlink="http://www.w3.org/1999/xlink" width="35px" height="px" viewBox="0 0 35 35" version="1.1">
<g id="surface1">
<path style="fill:none;stroke-width:2;stroke-linecap:round;stroke-linejoin:round;stroke:rgb(0%,0%,0%);stroke-opacity:1;stroke-miterlimit:4;" d="M 7.2 21 C 6.080357 21 5.520536 21 5.091964 20.783036 C 4.716964 20.590179 4.408929 20.284821 4.21875 19.907143 C 3.999107 19.48125 3.999107 18.921429 3.999107 17.799107 L 3.999107 6.200893 C 3.999107 5.078571 3.999107 4.51875 4.21875 4.092857 C 4.408929 3.715179 4.716964 3.409821 5.091964 3.216964 C 5.520536 3 6.080357 3 7.2 3 L 16.8 3 C 17.919643 3 18.479464 3 18.908036 3.216964 C 19.283036 3.409821 19.591071 3.715179 19.78125 4.092857 C 20.000893 4.51875 20.000893 5.078571 20.000893 6.200893 L 20.000893 6.999107 M 8.000893 6.999107 L 14.000893 6.999107 M 8.000893 15 L 9 15 M 8.000893 11.000893 L 12 11.000893 M 11.196429 20.895536 L 12.508929 20.635714 C 13.21875 20.49375 13.575 20.424107 13.904464 20.295536 C 14.199107 20.180357 14.477679 20.033036 14.7375 19.850893 C 15.026786 19.647321 15.283929 19.392857 15.795536 18.88125 L 20.94375 13.733036 C 21.629464 13.044643 21.629464 11.930357 20.94375 11.244643 C 20.255357 10.55625 19.141071 10.55625 18.455357 11.244643 L 13.21875 16.48125 C 12.739286 16.960714 12.498214 17.199107 12.305357 17.472321 C 12.133929 17.713393 11.989286 17.970536 11.874107 18.24375 C 11.745536 18.551786 11.667857 18.88125 11.5125 19.542857 Z M 11.196429 20.895536 " transform="matrix(1.458333,0,0,1.458333,0,0)"/>
</g>
</svg>
