<svg width="16" height="16" viewBox="0 0 16 16" fill="none" xmlns="http://www.w3.org/2000/svg">
<path d="M8.11115 11.1111C7.68157 11.1111 7.33336 11.4593 7.33336 11.8889C7.33336 12.3184 7.68157 12.6666 8.11115 12.6666C8.54072 12.6666 8.88893 12.3184 8.88893 11.8889C8.88893 11.4593 8.54072 11.1111 8.11115 11.1111ZM8.11115 11.1111V8.00008M8.11115 11.8889L8.11667 11.8944M11.2223 11.8889C11.2223 13.6071 9.82935 15 8.11115 15C6.39291 15 5 13.6071 5 11.8889C5 11.0999 5.29372 10.3794 5.77779 9.83099V3.33336C5.77779 2.04468 6.82243 1 8.11115 1C9.39986 1 10.4445 2.04468 10.4445 3.33336V9.83099C10.9286 10.3794 11.2223 11.0999 11.2223 11.8889Z" stroke="black" stroke-width="1.55557" stroke-linecap="round" stroke-linejoin="round"/>
</svg>
