<?xml version="1.0" standalone="no"?>
<!DOCTYPE svg PUBLIC "-//W3C//DTD SVG 20010904//EN"
 "http://www.w3.org/TR/2001/REC-SVG-20010904/DTD/svg10.dtd">
<svg version="1.0" xmlns="http://www.w3.org/2000/svg"
 width="476.000000pt" height="960.000000pt" viewBox="0 0 476.000000 960.000000"
 preserveAspectRatio="xMidYMid meet">
<metadata>
Created by potrace 1.16, written by Peter Selinger 2001-2019
</metadata>
<g transform="translate(0.000000,960.000000) scale(0.100000,-0.100000)"
fill="#000000" stroke="none">
<path d="M2071 9589 c-847 -70 -1438 -471 -1671 -1134 -93 -266 -123 -478
-124 -875 0 -332 10 -420 67 -570 l32 -85 0 -528 0 -528 -139 -55 c-144 -55
-200 -93 -212 -141 -4 -13 -10 -23 -15 -23 -31 0 15 -234 48 -247 7 -3 81 12
164 32 82 21 153 34 157 30 12 -12 15 -1160 3 -1477 -6 -167 -25 -512 -41
-768 -66 -1034 -66 -1258 -5 -1690 46 -316 129 -695 240 -1085 25 -88 53 -171
63 -185 30 -40 106 -86 189 -114 586 -194 2520 -194 3106 0 83 28 159 74 189
114 34 46 168 554 237 895 91 449 116 719 107 1140 -5 276 -11 377 -56 1080
-32 505 -42 893 -39 1503 2 319 7 584 11 587 4 4 75 -9 157 -30 83 -20 157
-35 164 -32 17 6 57 126 57 170 0 53 -28 121 -63 155 -23 22 -77 49 -173 86
l-139 55 0 528 0 528 32 85 c57 150 67 238 67 570 -1 224 -5 326 -18 423 -131
960 -747 1503 -1800 1587 -149 12 -444 11 -595 -1z m739 -84 c161 -21 328 -58
462 -102 l106 -35 12 -65 c16 -96 46 -150 124 -229 111 -111 246 -167 439
-182 l91 -7 37 -48 c96 -128 193 -328 244 -501 68 -236 87 -407 88 -766 0
-311 -10 -400 -65 -541 l-32 -84 -3 -562 -3 -561 157 -62 c87 -34 168 -71 180
-82 31 -29 46 -81 39 -131 -11 -74 -5 -74 -195 -27 -95 23 -175 39 -179 35
-12 -12 -14 -1266 -2 -1578 6 -164 24 -506 40 -760 68 -1076 66 -1335 -16
-1812 -67 -397 -231 -1053 -276 -1111 -112 -142 -924 -238 -1863 -220 -827 15
-1374 93 -1485 211 -26 28 -59 134 -140 450 -95 370 -156 690 -192 1005 -16
145 -16 721 1 985 6 105 23 361 36 571 13 209 29 515 35 680 12 312 10 1567
-2 1579 -4 4 -84 -12 -179 -35 -190 -47 -184 -47 -195 27 -7 50 8 102 39 131
12 11 93 49 180 83 l157 62 0 552 0 553 -25 57 c-43 96 -65 209 -76 391 -13
212 1 546 31 718 49 286 159 559 298 741 l38 50 91 7 c193 15 328 71 439 182
78 79 108 133 124 229 l12 65 106 35 c183 60 435 107 657 121 131 8 545 -4
665 -19z"/>
<path d="M1860 9351 c-192 -55 -340 -128 -437 -215 -96 -87 -231 -325 -322
-569 -164 -439 -281 -1136 -285 -1692 -1 -174 0 -180 19 -180 18 0 21 9 27
120 31 515 47 679 98 980 70 417 195 816 332 1063 105 188 178 264 328 341 96
49 265 110 275 99 3 -3 -62 -173 -144 -379 -82 -206 -172 -435 -199 -509 -84
-225 -344 -1094 -335 -1118 3 -7 15 -12 26 -10 16 2 25 19 43 78 12 41 61 208
109 370 157 532 182 604 427 1218 139 346 159 405 147 416 -12 12 -29 10 -109
-13z"/>
<path d="M2789 9364 c-10 -12 19 -93 149 -417 245 -613 271 -685 427 -1217 48
-162 97 -329 109 -370 18 -59 27 -76 43 -78 11 -2 23 3 26 10 5 14 -93 359
-219 768 -78 254 -156 464 -351 949 -63 156 -111 286 -108 289 10 11 178 -50
275 -99 152 -78 228 -157 332 -349 177 -328 311 -823 378 -1402 17 -151 26
-268 48 -633 6 -111 9 -120 27 -120 19 0 20 6 19 180 -4 556 -121 1253 -285
1692 -91 244 -226 482 -322 569 -96 86 -263 168 -444 217 -79 22 -94 23 -104
11z"/>
<path d="M1365 8518 c-107 -38 -213 -173 -259 -328 -27 -92 -136 -479 -136
-483 0 -3 9 -7 20 -10 14 -4 25 4 40 28 28 45 109 119 160 145 41 21 65 22
145 8 34 -5 31 34 -4 55 -78 46 -195 -7 -278 -127 -22 -32 -32 -42 -28 -26 14
48 38 85 94 143 87 92 170 125 236 95 22 -10 28 -9 36 3 5 8 9 17 9 22 0 14
-65 47 -95 47 -69 0 -170 -72 -225 -160 -23 -37 -22 -30 6 63 10 31 23 57 29
57 7 0 33 16 59 36 77 59 130 77 197 70 66 -8 83 4 51 37 -14 14 -38 22 -75
25 -64 5 -114 -17 -185 -81 -57 -51 -38 -23 37 56 88 92 171 127 242 103 39
-14 44 -13 55 2 15 20 4 36 -37 58 -61 31 -148 9 -224 -57 l-39 -34 21 31 c29
41 104 109 141 128 43 22 102 29 136 16 32 -12 40 -7 51 28 6 19 1 25 -37 42
-47 21 -97 24 -143 8z"/>
<path d="M3252 8511 c-37 -18 -42 -24 -37 -43 11 -35 19 -40 51 -28 34 13 93
6 136 -16 37 -19 112 -87 141 -128 l21 -31 -39 34 c-76 66 -163 88 -224 57
-41 -22 -52 -38 -37 -58 11 -15 16 -16 55 -2 71 24 154 -11 242 -103 75 -79
94 -107 37 -56 -71 64 -121 86 -185 81 -37 -3 -61 -11 -75 -25 -32 -33 -15
-45 51 -37 68 7 127 -14 197 -71 23 -19 49 -35 56 -35 9 0 21 -23 32 -57 28
-93 29 -100 6 -63 -55 88 -156 160 -225 160 -30 0 -95 -33 -95 -47 0 -5 4 -14
9 -22 8 -12 14 -13 36 -3 66 30 149 -3 236 -95 56 -58 80 -95 94 -143 4 -16
-6 -6 -28 26 -83 120 -200 173 -278 127 -35 -21 -38 -60 -4 -55 80 14 104 13
145 -8 51 -26 132 -100 160 -145 15 -24 26 -32 40 -28 11 3 20 8 20 10 0 5
-104 376 -136 483 -39 133 -142 274 -229 315 -59 27 -122 30 -173 6z"/>
<path d="M2110 7230 c-497 -47 -855 -184 -1080 -410 -119 -120 -190 -276 -190
-419 0 -95 126 -731 161 -818 56 -133 142 -229 227 -253 24 -6 415 -10 1152
-10 737 0 1128 4 1152 10 85 24 171 120 227 253 35 85 161 723 161 815 -1 176
-100 360 -266 492 -214 170 -487 272 -874 325 -137 19 -535 28 -670 15z"/>
<path d="M677 5803 c-17 -4 -18 -23 -10 -391 9 -420 10 -1103 3 -1822 -5 -479
-2 -527 41 -689 30 -112 93 -226 165 -296 52 -52 159 -124 169 -113 7 7 35
353 46 568 13 247 7 802 -11 1040 -43 568 -133 1066 -261 1436 -43 125 -108
275 -118 273 -3 -1 -14 -3 -24 -6z"/>
<path d="M4017 5732 c-162 -354 -286 -956 -337 -1632 -18 -238 -24 -793 -11
-1040 11 -215 39 -561 46 -568 10 -11 117 61 170 114 103 103 165 246 197 454
15 102 17 483 4 1155 -6 328 -5 637 4 1023 6 304 10 555 8 556 -1 2 -12 6 -24
10 -18 6 -25 -3 -57 -72z"/>
<path d="M1359 2326 c-85 -30 -150 -103 -169 -189 -11 -47 -6 -90 55 -467 74
-461 80 -480 166 -574 154 -169 468 -289 851 -326 89 -8 147 -8 235 0 380 37
670 146 839 314 99 99 103 113 180 591 67 419 67 420 51 475 -20 67 -63 121
-125 158 l-47 27 -1000 2 c-800 2 -1007 0 -1036 -11z"/>
<path d="M962 2181 c-49 -8 -55 -14 -71 -60 -26 -79 -13 -102 54 -91 28 5 83
14 124 20 l73 12 -5 39 c-3 22 -12 51 -21 64 -14 21 -24 25 -64 24 -26 -1 -66
-5 -90 -8z"/>
<path d="M3645 2167 c-19 -29 -33 -107 -19 -107 13 0 194 -29 221 -35 18 -4
24 0 29 20 8 34 -14 113 -36 125 -10 5 -53 12 -98 16 -78 7 -80 6 -97 -19z"/>
<path d="M1000 1988 c-35 -5 -70 -14 -77 -19 -34 -29 -40 -122 -9 -164 12 -17
19 -16 127 25 63 24 119 47 126 52 15 12 0 64 -29 95 -23 25 -35 26 -138 11z"/>
<path d="M3622 1977 c-29 -31 -44 -83 -29 -95 22 -17 237 -93 246 -88 17 11
33 77 27 109 -12 59 -33 75 -119 86 -103 14 -100 15 -125 -12z"/>
</g>
</svg>
